<?xml version="1.0" encoding="utf-8"?>
<!-- Generator: Adobe Illustrator 24.2.3, SVG Export Plug-In . SVG Version: 6.00 Build 0)  -->
<svg version="1.1" id="Ebene_1" xmlns="http://www.w3.org/2000/svg" xmlns:xlink="http://www.w3.org/1999/xlink" x="0px" y="0px"
	 viewBox="0 0 145 79" style="enable-background:new 0 0 145 79;" xml:space="preserve">
<style type="text/css">
	.st0{fill:#00FF00;}
</style>
<path class="st0" d="M140.3,33.4H18.8l24-24c2.1-2.1,2.1-5.6,0-7.8c-2.1-2.1-5.6-2.1-7.8,0L1.6,35c0,0,0,0,0,0
	c-0.3,0.3-0.5,0.5-0.7,0.8c0,0,0,0,0,0.1c-0.2,0.3-0.3,0.6-0.5,0.9c0,0,0,0,0,0.1c-0.1,0.3-0.2,0.6-0.3,1c0,0,0,0,0,0.1
	C0,38.2,0,38.6,0,38.9c0,0,0,0,0,0c0,0.3,0,0.7,0.1,1c0,0,0,0,0,0.1c0.1,0.3,0.2,0.6,0.3,1c0,0,0,0,0,0.1c0.1,0.3,0.3,0.6,0.5,0.9
	c0,0,0,0,0,0.1c0.2,0.3,0.4,0.6,0.7,0.8c0,0,0,0,0,0l36.7,36.7c1.1,1.1,2.5,1.6,3.9,1.6s2.8-0.5,3.9-1.6c2.1-2.1,2.1-5.6,0-7.8
	L18.8,44.4h121.5c3,0,5.5-2.5,5.5-5.5S143.3,33.4,140.3,33.4z"/>
</svg>
