<svg height="613" viewBox="0 0 615 613" width="615" xmlns="http://www.w3.org/2000/svg"><g fill="#0f0" fill-rule="evenodd" transform="translate(115 99)"><path d="m368.010433 410.890405h-298.2145437c-7.7725607 0-14.0738687-6.295308-14.0738687-14.062139v-.283949c0-7.766831 6.301308-14.062139 14.0738687-14.062139h298.2145437c7.774233 0 14.075541 6.295308 14.075541 14.062139v.283949c0 7.766831-6.301308 14.062139-14.075541 14.062139"/><path d="m187.173425 20.2856259-160.0789707 342.9648761c-3.2852402 7.038587-11.659677 10.083518-18.70497069 6.801406l-.2574692-.120261c-7.04529373-3.282112-10.09479914-11.648576-6.80955894-18.687162l160.08064253-342.9648763c3.285241-7.03858605 11.659677-10.0835178 18.704971-6.80140541l.257469.1202606c7.045294 3.28211239 10.093128 11.64857601 6.807887 18.68716201"/></g></svg>